SplineFontDB: 3.2
FontName: AlphabetD
FullName: AlphabetD
FamilyName: AlphabetD
Weight: Regular
Copyright: Copyright (c) 2025, 
UComments: "2025-8-15: Created with FontForge (http://fontforge.org)"
Version: 001.000
ItalicAngle: 0
UnderlinePosition: -60
UnderlineWidth: 30
Ascent: 600
Descent: 0
InvalidEm: 0
LayerCount: 2
Layer: 0 0 "Back" 1
Layer: 1 0 "Fore" 0
XUID: [1021 528 -737890285 16270241]
FSType: 0
OS2Version: 0
OS2_WeightWidthSlopeOnly: 0
OS2_UseTypoMetrics: 1
CreationTime: 1755327341
ModificationTime: 1755495620
PfmFamily: 17
TTFWeight: 400
TTFWidth: 5
LineGap: 32
VLineGap: 0
OS2TypoAscent: 0
OS2TypoAOffset: 1
OS2TypoDescent: 0
OS2TypoDOffset: 1
OS2TypoLinegap: 32
OS2WinAscent: 0
OS2WinAOffset: 1
OS2WinDescent: 0
OS2WinDOffset: 1
HheadAscent: 0
HheadAOffset: 1
HheadDescent: 0
HheadDOffset: 1
OS2Vendor: 'PfEd'
Lookup: 3 0 0 "Alternate Substitution in Latin lookup 0" { "Alternate Substitution in Latin lookup 0-1"  } ['    ' ('DFLT' <'dflt' > 'latn' <'dflt' > ) ]
MarkAttachClasses: 1
DEI: 91125
LangName: 1033
Encoding: Custom
UnicodeInterp: none
NameList: AGL For New Fonts
DisplaySize: -128
AntiAlias: 1
FitToEm: 0
WinInfo: 42 14 6
BeginPrivate: 0
EndPrivate
Grid
-779.5 900 m 0
 -779.5 -300 l 1024
-600 790 m 0
 1200 790 l 1024
EndSplineSet
TeXData: 1 0 0 346030 173015 115343 0 1048576 115343 783286 444596 497025 792723 393216 433062 380633 303038 157286 324010 404750 52429 2506097 1059062 262144
BeginChars: 250 150

StartChar: _BASE
Encoding: 24 95 0
Width: 1000
Flags: HMW
LayerCount: 2
Fore
SplineSet
475 600 m 25
 525 600 l 25
 525 0 l 25
 475 0 l 29
 475 600 l 25
EndSplineSet
EndChar

StartChar: A
Encoding: 0 65 1
Width: 1000
Flags: HW
LayerCount: 2
Fore
SplineSet
475 600 m 25
 525 600 l 25
 525 0 l 25
 475 0 l 29
 475 600 l 25
EndSplineSet
EndChar

StartChar: C
Encoding: 2 67 2
Width: 1000
Flags: HW
LayerCount: 2
Fore
SplineSet
475 600 m 25
 525 600 l 25
 525 0 l 25
 475 0 l 29
 475 600 l 25
EndSplineSet
EndChar

StartChar: E
Encoding: 4 69 3
Width: 1000
Flags: HW
LayerCount: 2
Fore
SplineSet
475 600 m 25
 525 600 l 25
 525 0 l 25
 475 0 l 29
 475 600 l 25
EndSplineSet
EndChar

StartChar: F
Encoding: 5 70 4
Width: 1000
Flags: HW
LayerCount: 2
Fore
SplineSet
475 600 m 25
 525 600 l 25
 525 0 l 25
 475 0 l 29
 475 600 l 25
EndSplineSet
EndChar

StartChar: H
Encoding: 7 72 5
Width: 1000
Flags: HW
LayerCount: 2
Fore
SplineSet
475 600 m 25
 525 600 l 25
 525 0 l 25
 475 0 l 29
 475 600 l 25
EndSplineSet
EndChar

StartChar: I
Encoding: 8 73 6
Width: 1000
Flags: HW
LayerCount: 2
Fore
SplineSet
475 600 m 25
 525 600 l 25
 525 0 l 25
 475 0 l 29
 475 600 l 25
EndSplineSet
EndChar

StartChar: K
Encoding: 10 75 7
Width: 1000
Flags: HW
LayerCount: 2
Fore
SplineSet
475 600 m 25
 525 600 l 25
 525 0 l 25
 475 0 l 29
 475 600 l 25
EndSplineSet
EndChar

StartChar: L
Encoding: 11 76 8
Width: 1000
Flags: HW
LayerCount: 2
Fore
SplineSet
475 600 m 25
 525 600 l 25
 525 0 l 25
 475 0 l 29
 475 600 l 25
EndSplineSet
EndChar

StartChar: M
Encoding: 12 77 9
Width: 1000
Flags: HW
LayerCount: 2
Fore
SplineSet
475 600 m 25
 525 600 l 25
 525 0 l 25
 475 0 l 29
 475 600 l 25
EndSplineSet
EndChar

StartChar: N
Encoding: 13 78 10
Width: 1000
Flags: HW
LayerCount: 2
Fore
SplineSet
475 600 m 25
 525 600 l 25
 525 0 l 25
 475 0 l 29
 475 600 l 25
EndSplineSet
EndChar

StartChar: O
Encoding: 14 79 11
Width: 1000
Flags: HW
LayerCount: 2
Fore
SplineSet
475 600 m 25
 525 600 l 25
 525 0 l 25
 475 0 l 29
 475 600 l 25
EndSplineSet
EndChar

StartChar: P
Encoding: 15 80 12
Width: 1000
Flags: HW
LayerCount: 2
Fore
SplineSet
475 600 m 25
 525 600 l 25
 525 0 l 25
 475 0 l 29
 475 600 l 25
EndSplineSet
EndChar

StartChar: R
Encoding: 16 82 13
Width: 1000
Flags: HW
LayerCount: 2
Fore
SplineSet
475 600 m 25
 525 600 l 25
 525 0 l 25
 475 0 l 29
 475 600 l 25
EndSplineSet
EndChar

StartChar: S
Encoding: 17 83 14
Width: 1000
Flags: HW
LayerCount: 2
Fore
SplineSet
475 600 m 25
 525 600 l 25
 525 0 l 25
 475 0 l 29
 475 600 l 25
EndSplineSet
EndChar

StartChar: T
Encoding: 18 84 15
Width: 1000
Flags: HW
LayerCount: 2
Fore
SplineSet
475 600 m 25
 525 600 l 25
 525 0 l 25
 475 0 l 29
 475 600 l 25
EndSplineSet
EndChar

StartChar: U
Encoding: 19 85 16
Width: 1000
Flags: HW
LayerCount: 2
Fore
SplineSet
475 600 m 25
 525 600 l 25
 525 0 l 25
 475 0 l 29
 475 600 l 25
EndSplineSet
EndChar

StartChar: W
Encoding: 21 87 17
Width: 1000
Flags: HW
LayerCount: 2
Fore
SplineSet
475 600 m 25
 525 600 l 25
 525 0 l 25
 475 0 l 29
 475 600 l 25
EndSplineSet
EndChar

StartChar: Y
Encoding: 22 89 18
Width: 1000
Flags: HW
LayerCount: 2
Fore
SplineSet
475 600 m 25
 525 600 l 25
 525 0 l 25
 475 0 l 29
 475 600 l 25
EndSplineSet
EndChar

StartChar: B
Encoding: 1 66 19
Width: 1000
Flags: HW
LayerCount: 2
Fore
SplineSet
475 600 m 25
 525 600 l 25
 525 0 l 25
 475 0 l 29
 475 600 l 25
EndSplineSet
EndChar

StartChar: D
Encoding: 3 68 20
Width: 1000
Flags: HW
LayerCount: 2
Fore
SplineSet
475 600 m 25
 525 600 l 25
 525 0 l 25
 475 0 l 29
 475 600 l 25
EndSplineSet
EndChar

StartChar: G
Encoding: 6 71 21
Width: 1000
Flags: HW
LayerCount: 2
Fore
SplineSet
475 600 m 25
 525 600 l 25
 525 0 l 25
 475 0 l 29
 475 600 l 25
EndSplineSet
EndChar

StartChar: J
Encoding: 9 74 22
Width: 1000
Flags: HW
LayerCount: 2
Fore
SplineSet
475 600 m 25
 525 600 l 25
 525 0 l 25
 475 0 l 29
 475 600 l 25
EndSplineSet
EndChar

StartChar: V
Encoding: 20 86 23
Width: 1000
Flags: HW
LayerCount: 2
Fore
SplineSet
475 600 m 25
 525 600 l 25
 525 0 l 25
 475 0 l 29
 475 600 l 25
EndSplineSet
EndChar

StartChar: Z
Encoding: 23 90 24
Width: 1000
Flags: HW
LayerCount: 2
Fore
SplineSet
475 600 m 25
 525 600 l 25
 525 0 l 25
 475 0 l 29
 475 600 l 25
EndSplineSet
EndChar

StartChar: Eacute
Encoding: 25 201 25
Width: 1000
Flags: HW
LayerCount: 2
Fore
SplineSet
475 600 m 25
 525 600 l 25
 525 0 l 25
 475 0 l 29
 475 600 l 25
EndSplineSet
EndChar

StartChar: Iacute
Encoding: 26 205 26
Width: 1000
Flags: HW
LayerCount: 2
Fore
SplineSet
475 600 m 25
 525 600 l 25
 525 0 l 25
 475 0 l 29
 475 600 l 25
EndSplineSet
EndChar

StartChar: Oacute
Encoding: 28 211 27
Width: 1000
Flags: HW
LayerCount: 2
Fore
SplineSet
475 600 m 25
 525 600 l 25
 525 0 l 25
 475 0 l 29
 475 600 l 25
EndSplineSet
EndChar

StartChar: Uacute
Encoding: 29 218 28
Width: 1000
Flags: HW
LayerCount: 2
Fore
SplineSet
475 600 m 25
 525 600 l 25
 525 0 l 25
 475 0 l 29
 475 600 l 25
EndSplineSet
EndChar

StartChar: Edh
Encoding: 27 208 29
Width: 1000
Flags: HW
LayerCount: 2
Fore
SplineSet
475 600 m 25
 525 600 l 25
 525 0 l 25
 475 0 l 29
 475 600 l 25
EndSplineSet
EndChar

StartChar: Thorn
Encoding: 30 222 30
Width: 1000
Flags: HW
LayerCount: 2
Fore
SplineSet
475 600 m 25
 525 600 l 25
 525 0 l 25
 475 0 l 29
 475 600 l 25
EndSplineSet
EndChar

StartChar: Eng
Encoding: 31 330 31
Width: 1000
Flags: HW
LayerCount: 2
Fore
SplineSet
475 600 m 25
 525 600 l 25
 525 0 l 25
 475 0 l 29
 475 600 l 25
EndSplineSet
EndChar

StartChar: Esh
Encoding: 32 346 32
Width: 1000
Flags: HW
LayerCount: 2
Fore
SplineSet
475 600 m 25
 525 600 l 25
 525 0 l 25
 475 0 l 29
 475 600 l 25
EndSplineSet
EndChar

StartChar: Zhed
Encoding: 33 377 33
Width: 1000
Flags: HW
LayerCount: 2
Fore
SplineSet
475 600 m 25
 525 600 l 25
 525 0 l 25
 475 0 l 29
 475 600 l 25
EndSplineSet
EndChar

StartChar: Udoubleacute
Encoding: 34 368 34
Width: 1000
Flags: HW
LayerCount: 2
Fore
SplineSet
475 600 m 25
 525 600 l 25
 525 0 l 25
 475 0 l 29
 475 600 l 25
EndSplineSet
EndChar

StartChar: Emphasis
Encoding: 35 39 35
Width: 1000
Flags: HW
LayerCount: 2
Fore
SplineSet
475 600 m 25
 525 600 l 25
 525 0 l 25
 475 0 l 29
 475 600 l 25
EndSplineSet
EndChar

StartChar: Special
Encoding: 60 59 60
Width: 1000
Flags: HW
LayerCount: 2
Fore
SplineSet
475 600 m 25
 525 600 l 25
 525 0 l 25
 475 0 l 29
 475 600 l 25
EndSplineSet
EndChar

StartChar: Space
Encoding: 61 32 61
Width: 1000
Flags: HW
LayerCount: 2
Fore
SplineSet
475 600 m 25
 525 600 l 25
 525 0 l 25
 475 0 l 29
 475 600 l 25
EndSplineSet
EndChar

StartChar: Stop
Encoding: 62 46 62
Width: 1000
Flags: HW
LayerCount: 2
Fore
SplineSet
475 600 m 25
 525 600 l 25
 525 0 l 25
 475 0 l 29
 475 600 l 25
EndSplineSet
EndChar

StartChar: Comma
Encoding: 63 44 63
Width: 1000
Flags: HW
LayerCount: 2
Fore
SplineSet
475 600 m 25
 525 600 l 25
 525 0 l 25
 475 0 l 29
 475 600 l 25
EndSplineSet
EndChar

StartChar: Question
Encoding: 64 63 64
Width: 1000
Flags: HW
LayerCount: 2
Fore
SplineSet
475 600 m 25
 525 600 l 25
 525 0 l 25
 475 0 l 29
 475 600 l 25
EndSplineSet
EndChar

StartChar: Ellipsis
Encoding: 65 -1 65
Width: 1000
Flags: HW
LayerCount: 2
Fore
SplineSet
475 600 m 25
 525 600 l 25
 525 0 l 25
 475 0 l 29
 475 600 l 25
EndSplineSet
EndChar

StartChar: Hyphen
Encoding: 66 45 66
Width: 1000
Flags: HW
LayerCount: 2
Fore
SplineSet
475 600 m 25
 525 600 l 25
 525 0 l 25
 475 0 l 29
 475 600 l 25
EndSplineSet
EndChar

StartChar: Start
Encoding: 67 94 67
Width: 1000
Flags: HW
LayerCount: 2
Fore
SplineSet
475 600 m 25
 525 600 l 25
 525 0 l 25
 475 0 l 29
 475 600 l 25
EndSplineSet
EndChar

StartChar: eacute
Encoding: 68 233 68
Width: 1000
Flags: HW
LayerCount: 2
Fore
SplineSet
475 600 m 25
 525 600 l 25
 525 0 l 25
 475 0 l 29
 475 600 l 25
EndSplineSet
EndChar

StartChar: iacute
Encoding: 69 237 69
Width: 1000
Flags: HW
LayerCount: 2
Fore
SplineSet
475 600 m 25
 525 600 l 25
 525 0 l 25
 475 0 l 29
 475 600 l 25
EndSplineSet
EndChar

StartChar: edh
Encoding: 70 240 70
Width: 1000
Flags: HW
LayerCount: 2
Fore
SplineSet
475 600 m 25
 525 600 l 25
 525 0 l 25
 475 0 l 29
 475 600 l 25
EndSplineSet
EndChar

StartChar: oacute
Encoding: 71 243 71
Width: 1000
Flags: HW
LayerCount: 2
Fore
SplineSet
475 600 m 25
 525 600 l 25
 525 0 l 25
 475 0 l 29
 475 600 l 25
EndSplineSet
EndChar

StartChar: uacute
Encoding: 72 250 72
Width: 1000
Flags: HW
LayerCount: 2
Fore
SplineSet
475 600 m 25
 525 600 l 25
 525 0 l 25
 475 0 l 29
 475 600 l 25
EndSplineSet
EndChar

StartChar: thorn
Encoding: 73 254 73
Width: 1000
Flags: HW
LayerCount: 2
Fore
SplineSet
475 600 m 25
 525 600 l 25
 525 0 l 25
 475 0 l 29
 475 600 l 25
EndSplineSet
EndChar

StartChar: eng
Encoding: 74 331 74
Width: 1000
Flags: HW
LayerCount: 2
Fore
SplineSet
475 600 m 25
 525 600 l 25
 525 0 l 25
 475 0 l 29
 475 600 l 25
EndSplineSet
EndChar

StartChar: esh
Encoding: 75 347 75
Width: 1000
Flags: HW
LayerCount: 2
Fore
SplineSet
475 600 m 25
 525 600 l 25
 525 0 l 25
 475 0 l 29
 475 600 l 25
EndSplineSet
EndChar

StartChar: zhed
Encoding: 76 378 76
Width: 1000
Flags: HW
LayerCount: 2
Fore
SplineSet
475 600 m 25
 525 600 l 25
 525 0 l 25
 475 0 l 29
 475 600 l 25
EndSplineSet
EndChar

StartChar: udoubleacute
Encoding: 77 369 77
Width: 1000
Flags: HW
LayerCount: 2
Fore
SplineSet
475 600 m 25
 525 600 l 25
 525 0 l 25
 475 0 l 29
 475 600 l 25
EndSplineSet
EndChar

StartChar: A.solo
Encoding: 78 -1 78
Width: 1000
Flags: HW
LayerCount: 2
Fore
SplineSet
683.299804688 400 m 25
 841.599609375 400 l 25
 841.599609375 200 l 25
 683.299804688 200 l 29
 683.299804688 400 l 25
158.299804688 400 m 25
 316.599609375 400 l 25
 316.599609375 200 l 25
 158.299804688 200 l 25
 158.299804688 400 l 25
475 600 m 25
 525 600 l 25
 525 0 l 25
 475 0 l 29
 475 600 l 25
EndSplineSet
EndChar

StartChar: B.solo
Encoding: 79 -1 79
Width: 1000
Flags: HW
LayerCount: 2
Fore
SplineSet
683.299804688 400 m 25
 841.599609375 400 l 25
 841.599609375 200 l 25
 683.299804688 200 l 29
 683.299804688 400 l 25
158.299804688 400 m 25
 316.599609375 400 l 25
 316.599609375 200 l 25
 158.299804688 200 l 25
 158.299804688 400 l 25
475 600 m 25
 525 600 l 25
 525 0 l 25
 475 0 l 29
 475 600 l 25
EndSplineSet
EndChar

StartChar: C.solo
Encoding: 80 -1 80
Width: 1000
Flags: HW
LayerCount: 2
Fore
SplineSet
683.299804688 400 m 25
 841.599609375 400 l 25
 841.599609375 200 l 25
 683.299804688 200 l 29
 683.299804688 400 l 25
158.299804688 400 m 25
 316.599609375 400 l 25
 316.599609375 200 l 25
 158.299804688 200 l 25
 158.299804688 400 l 25
475 600 m 25
 525 600 l 25
 525 0 l 25
 475 0 l 29
 475 600 l 25
EndSplineSet
EndChar

StartChar: D.solo
Encoding: 81 -1 81
Width: 1000
Flags: HW
LayerCount: 2
Fore
SplineSet
683.299804688 400 m 25
 841.599609375 400 l 25
 841.599609375 200 l 25
 683.299804688 200 l 29
 683.299804688 400 l 25
158.299804688 400 m 25
 316.599609375 400 l 25
 316.599609375 200 l 25
 158.299804688 200 l 25
 158.299804688 400 l 25
475 600 m 25
 525 600 l 25
 525 0 l 25
 475 0 l 29
 475 600 l 25
EndSplineSet
EndChar

StartChar: E.solo
Encoding: 82 -1 82
Width: 1000
Flags: HW
LayerCount: 2
Fore
SplineSet
683.299804688 400 m 25
 841.599609375 400 l 25
 841.599609375 200 l 25
 683.299804688 200 l 29
 683.299804688 400 l 25
158.299804688 400 m 25
 316.599609375 400 l 25
 316.599609375 200 l 25
 158.299804688 200 l 25
 158.299804688 400 l 25
475 600 m 25
 525 600 l 25
 525 0 l 25
 475 0 l 29
 475 600 l 25
EndSplineSet
EndChar

StartChar: Eacute.solo
Encoding: 83 -1 83
Width: 1000
Flags: HW
LayerCount: 2
Fore
SplineSet
683.299804688 400 m 25
 841.599609375 400 l 25
 841.599609375 200 l 25
 683.299804688 200 l 29
 683.299804688 400 l 25
158.299804688 400 m 25
 316.599609375 400 l 25
 316.599609375 200 l 25
 158.299804688 200 l 25
 158.299804688 400 l 25
475 600 m 25
 525 600 l 25
 525 0 l 25
 475 0 l 29
 475 600 l 25
EndSplineSet
EndChar

StartChar: Edh.solo
Encoding: 84 -1 84
Width: 1000
Flags: HW
LayerCount: 2
Fore
SplineSet
683.299804688 400 m 25
 841.599609375 400 l 25
 841.599609375 200 l 25
 683.299804688 200 l 29
 683.299804688 400 l 25
158.299804688 400 m 25
 316.599609375 400 l 25
 316.599609375 200 l 25
 158.299804688 200 l 25
 158.299804688 400 l 25
475 600 m 25
 525 600 l 25
 525 0 l 25
 475 0 l 29
 475 600 l 25
EndSplineSet
EndChar

StartChar: Eng.solo
Encoding: 85 -1 85
Width: 1000
Flags: HW
LayerCount: 2
Fore
SplineSet
683.299804688 400 m 25
 841.599609375 400 l 25
 841.599609375 200 l 25
 683.299804688 200 l 29
 683.299804688 400 l 25
158.299804688 400 m 25
 316.599609375 400 l 25
 316.599609375 200 l 25
 158.299804688 200 l 25
 158.299804688 400 l 25
475 600 m 25
 525 600 l 25
 525 0 l 25
 475 0 l 29
 475 600 l 25
EndSplineSet
EndChar

StartChar: Esh.solo
Encoding: 86 -1 86
Width: 1000
Flags: HW
LayerCount: 2
Fore
SplineSet
683.299804688 400 m 25
 841.599609375 400 l 25
 841.599609375 200 l 25
 683.299804688 200 l 29
 683.299804688 400 l 25
158.299804688 400 m 25
 316.599609375 400 l 25
 316.599609375 200 l 25
 158.299804688 200 l 25
 158.299804688 400 l 25
475 600 m 25
 525 600 l 25
 525 0 l 25
 475 0 l 29
 475 600 l 25
EndSplineSet
EndChar

StartChar: F.solo
Encoding: 87 -1 87
Width: 1000
Flags: HW
LayerCount: 2
Fore
SplineSet
683.299804688 400 m 25
 841.599609375 400 l 25
 841.599609375 200 l 25
 683.299804688 200 l 29
 683.299804688 400 l 25
158.299804688 400 m 25
 316.599609375 400 l 25
 316.599609375 200 l 25
 158.299804688 200 l 25
 158.299804688 400 l 25
475 600 m 25
 525 600 l 25
 525 0 l 25
 475 0 l 29
 475 600 l 25
EndSplineSet
EndChar

StartChar: G.solo
Encoding: 88 -1 88
Width: 1000
Flags: HW
LayerCount: 2
Fore
SplineSet
683.299804688 400 m 25
 841.599609375 400 l 25
 841.599609375 200 l 25
 683.299804688 200 l 29
 683.299804688 400 l 25
158.299804688 400 m 25
 316.599609375 400 l 25
 316.599609375 200 l 25
 158.299804688 200 l 25
 158.299804688 400 l 25
475 600 m 25
 525 600 l 25
 525 0 l 25
 475 0 l 29
 475 600 l 25
EndSplineSet
EndChar

StartChar: H.solo
Encoding: 89 -1 89
Width: 1000
Flags: HW
LayerCount: 2
Fore
SplineSet
683.299804688 400 m 25
 841.599609375 400 l 25
 841.599609375 200 l 25
 683.299804688 200 l 29
 683.299804688 400 l 25
158.299804688 400 m 25
 316.599609375 400 l 25
 316.599609375 200 l 25
 158.299804688 200 l 25
 158.299804688 400 l 25
475 600 m 25
 525 600 l 25
 525 0 l 25
 475 0 l 29
 475 600 l 25
EndSplineSet
EndChar

StartChar: I.solo
Encoding: 90 -1 90
Width: 1000
Flags: HW
LayerCount: 2
Fore
SplineSet
683.299804688 400 m 25
 841.599609375 400 l 25
 841.599609375 200 l 25
 683.299804688 200 l 29
 683.299804688 400 l 25
158.299804688 400 m 25
 316.599609375 400 l 25
 316.599609375 200 l 25
 158.299804688 200 l 25
 158.299804688 400 l 25
475 600 m 25
 525 600 l 25
 525 0 l 25
 475 0 l 29
 475 600 l 25
EndSplineSet
EndChar

StartChar: Iacute.solo
Encoding: 91 -1 91
Width: 1000
Flags: HW
LayerCount: 2
Fore
SplineSet
683.299804688 400 m 25
 841.599609375 400 l 25
 841.599609375 200 l 25
 683.299804688 200 l 29
 683.299804688 400 l 25
158.299804688 400 m 25
 316.599609375 400 l 25
 316.599609375 200 l 25
 158.299804688 200 l 25
 158.299804688 400 l 25
475 600 m 25
 525 600 l 25
 525 0 l 25
 475 0 l 29
 475 600 l 25
EndSplineSet
EndChar

StartChar: J.solo
Encoding: 92 -1 92
Width: 1000
Flags: HW
LayerCount: 2
Fore
SplineSet
683.299804688 400 m 25
 841.599609375 400 l 25
 841.599609375 200 l 25
 683.299804688 200 l 29
 683.299804688 400 l 25
158.299804688 400 m 25
 316.599609375 400 l 25
 316.599609375 200 l 25
 158.299804688 200 l 25
 158.299804688 400 l 25
475 600 m 25
 525 600 l 25
 525 0 l 25
 475 0 l 29
 475 600 l 25
EndSplineSet
EndChar

StartChar: K.solo
Encoding: 93 -1 93
Width: 1000
Flags: HW
LayerCount: 2
Fore
SplineSet
683.299804688 400 m 25
 841.599609375 400 l 25
 841.599609375 200 l 25
 683.299804688 200 l 29
 683.299804688 400 l 25
158.299804688 400 m 25
 316.599609375 400 l 25
 316.599609375 200 l 25
 158.299804688 200 l 25
 158.299804688 400 l 25
475 600 m 25
 525 600 l 25
 525 0 l 25
 475 0 l 29
 475 600 l 25
EndSplineSet
EndChar

StartChar: L.solo
Encoding: 94 -1 94
Width: 1000
Flags: HW
LayerCount: 2
Fore
SplineSet
683.299804688 400 m 25
 841.599609375 400 l 25
 841.599609375 200 l 25
 683.299804688 200 l 29
 683.299804688 400 l 25
158.299804688 400 m 25
 316.599609375 400 l 25
 316.599609375 200 l 25
 158.299804688 200 l 25
 158.299804688 400 l 25
475 600 m 25
 525 600 l 25
 525 0 l 25
 475 0 l 29
 475 600 l 25
EndSplineSet
EndChar

StartChar: M.solo
Encoding: 95 -1 95
Width: 1000
Flags: HW
LayerCount: 2
Fore
SplineSet
683.299804688 400 m 25
 841.599609375 400 l 25
 841.599609375 200 l 25
 683.299804688 200 l 29
 683.299804688 400 l 25
158.299804688 400 m 25
 316.599609375 400 l 25
 316.599609375 200 l 25
 158.299804688 200 l 25
 158.299804688 400 l 25
475 600 m 25
 525 600 l 25
 525 0 l 25
 475 0 l 29
 475 600 l 25
EndSplineSet
EndChar

StartChar: N.solo
Encoding: 96 -1 96
Width: 1000
Flags: HW
LayerCount: 2
Fore
SplineSet
683.299804688 400 m 25
 841.599609375 400 l 25
 841.599609375 200 l 25
 683.299804688 200 l 29
 683.299804688 400 l 25
158.299804688 400 m 25
 316.599609375 400 l 25
 316.599609375 200 l 25
 158.299804688 200 l 25
 158.299804688 400 l 25
475 600 m 25
 525 600 l 25
 525 0 l 25
 475 0 l 29
 475 600 l 25
EndSplineSet
EndChar

StartChar: O.solo
Encoding: 97 -1 97
Width: 1000
Flags: HW
LayerCount: 2
Fore
SplineSet
683.299804688 400 m 25
 841.599609375 400 l 25
 841.599609375 200 l 25
 683.299804688 200 l 29
 683.299804688 400 l 25
158.299804688 400 m 25
 316.599609375 400 l 25
 316.599609375 200 l 25
 158.299804688 200 l 25
 158.299804688 400 l 25
475 600 m 25
 525 600 l 25
 525 0 l 25
 475 0 l 29
 475 600 l 25
EndSplineSet
EndChar

StartChar: Oacute.solo
Encoding: 98 -1 98
Width: 1000
Flags: HW
LayerCount: 2
Fore
SplineSet
683.299804688 400 m 25
 841.599609375 400 l 25
 841.599609375 200 l 25
 683.299804688 200 l 29
 683.299804688 400 l 25
158.299804688 400 m 25
 316.599609375 400 l 25
 316.599609375 200 l 25
 158.299804688 200 l 25
 158.299804688 400 l 25
475 600 m 25
 525 600 l 25
 525 0 l 25
 475 0 l 29
 475 600 l 25
EndSplineSet
EndChar

StartChar: P.solo
Encoding: 99 -1 99
Width: 1000
Flags: HW
LayerCount: 2
Fore
SplineSet
683.299804688 400 m 25
 841.599609375 400 l 25
 841.599609375 200 l 25
 683.299804688 200 l 29
 683.299804688 400 l 25
158.299804688 400 m 25
 316.599609375 400 l 25
 316.599609375 200 l 25
 158.299804688 200 l 25
 158.299804688 400 l 25
475 600 m 25
 525 600 l 25
 525 0 l 25
 475 0 l 29
 475 600 l 25
EndSplineSet
EndChar

StartChar: R.solo
Encoding: 100 -1 100
Width: 1000
Flags: HW
LayerCount: 2
Fore
SplineSet
683.299804688 400 m 25
 841.599609375 400 l 25
 841.599609375 200 l 25
 683.299804688 200 l 29
 683.299804688 400 l 25
158.299804688 400 m 25
 316.599609375 400 l 25
 316.599609375 200 l 25
 158.299804688 200 l 25
 158.299804688 400 l 25
475 600 m 25
 525 600 l 25
 525 0 l 25
 475 0 l 29
 475 600 l 25
EndSplineSet
EndChar

StartChar: S.solo
Encoding: 101 -1 101
Width: 1000
Flags: HW
LayerCount: 2
Fore
SplineSet
683.299804688 400 m 25
 841.599609375 400 l 25
 841.599609375 200 l 25
 683.299804688 200 l 29
 683.299804688 400 l 25
158.299804688 400 m 25
 316.599609375 400 l 25
 316.599609375 200 l 25
 158.299804688 200 l 25
 158.299804688 400 l 25
475 600 m 25
 525 600 l 25
 525 0 l 25
 475 0 l 29
 475 600 l 25
EndSplineSet
EndChar

StartChar: T.solo
Encoding: 102 -1 102
Width: 1000
Flags: HW
LayerCount: 2
Fore
SplineSet
683.299804688 400 m 25
 841.599609375 400 l 25
 841.599609375 200 l 25
 683.299804688 200 l 29
 683.299804688 400 l 25
158.299804688 400 m 25
 316.599609375 400 l 25
 316.599609375 200 l 25
 158.299804688 200 l 25
 158.299804688 400 l 25
475 600 m 25
 525 600 l 25
 525 0 l 25
 475 0 l 29
 475 600 l 25
EndSplineSet
EndChar

StartChar: Thorn.solo
Encoding: 103 -1 103
Width: 1000
Flags: HW
LayerCount: 2
Fore
SplineSet
683.299804688 400 m 25
 841.599609375 400 l 25
 841.599609375 200 l 25
 683.299804688 200 l 29
 683.299804688 400 l 25
158.299804688 400 m 25
 316.599609375 400 l 25
 316.599609375 200 l 25
 158.299804688 200 l 25
 158.299804688 400 l 25
475 600 m 25
 525 600 l 25
 525 0 l 25
 475 0 l 29
 475 600 l 25
EndSplineSet
EndChar

StartChar: U.solo
Encoding: 104 -1 104
Width: 1000
Flags: HW
LayerCount: 2
Fore
SplineSet
683.299804688 400 m 25
 841.599609375 400 l 25
 841.599609375 200 l 25
 683.299804688 200 l 29
 683.299804688 400 l 25
158.299804688 400 m 25
 316.599609375 400 l 25
 316.599609375 200 l 25
 158.299804688 200 l 25
 158.299804688 400 l 25
475 600 m 25
 525 600 l 25
 525 0 l 25
 475 0 l 29
 475 600 l 25
EndSplineSet
EndChar

StartChar: Uacute.solo
Encoding: 105 -1 105
Width: 1000
Flags: HW
LayerCount: 2
Fore
SplineSet
683.299804688 400 m 25
 841.599609375 400 l 25
 841.599609375 200 l 25
 683.299804688 200 l 29
 683.299804688 400 l 25
158.299804688 400 m 25
 316.599609375 400 l 25
 316.599609375 200 l 25
 158.299804688 200 l 25
 158.299804688 400 l 25
475 600 m 25
 525 600 l 25
 525 0 l 25
 475 0 l 29
 475 600 l 25
EndSplineSet
EndChar

StartChar: Udoubleacute.solo
Encoding: 106 -1 106
Width: 1000
Flags: HW
LayerCount: 2
Fore
SplineSet
683.299804688 400 m 25
 841.599609375 400 l 25
 841.599609375 200 l 25
 683.299804688 200 l 29
 683.299804688 400 l 25
158.299804688 400 m 25
 316.599609375 400 l 25
 316.599609375 200 l 25
 158.299804688 200 l 25
 158.299804688 400 l 25
475 600 m 25
 525 600 l 25
 525 0 l 25
 475 0 l 29
 475 600 l 25
EndSplineSet
EndChar

StartChar: V.solo
Encoding: 107 -1 107
Width: 1000
Flags: HW
LayerCount: 2
Fore
SplineSet
683.299804688 400 m 25
 841.599609375 400 l 25
 841.599609375 200 l 25
 683.299804688 200 l 29
 683.299804688 400 l 25
158.299804688 400 m 25
 316.599609375 400 l 25
 316.599609375 200 l 25
 158.299804688 200 l 25
 158.299804688 400 l 25
475 600 m 25
 525 600 l 25
 525 0 l 25
 475 0 l 29
 475 600 l 25
EndSplineSet
EndChar

StartChar: W.solo
Encoding: 108 -1 108
Width: 1000
Flags: HW
LayerCount: 2
Fore
SplineSet
683.299804688 400 m 25
 841.599609375 400 l 25
 841.599609375 200 l 25
 683.299804688 200 l 29
 683.299804688 400 l 25
158.299804688 400 m 25
 316.599609375 400 l 25
 316.599609375 200 l 25
 158.299804688 200 l 25
 158.299804688 400 l 25
475 600 m 25
 525 600 l 25
 525 0 l 25
 475 0 l 29
 475 600 l 25
EndSplineSet
EndChar

StartChar: Y.solo
Encoding: 109 -1 109
Width: 1000
Flags: HW
LayerCount: 2
Fore
SplineSet
683.299804688 400 m 25
 841.599609375 400 l 25
 841.599609375 200 l 25
 683.299804688 200 l 29
 683.299804688 400 l 25
158.299804688 400 m 25
 316.599609375 400 l 25
 316.599609375 200 l 25
 158.299804688 200 l 25
 158.299804688 400 l 25
475 600 m 25
 525 600 l 25
 525 0 l 25
 475 0 l 29
 475 600 l 25
EndSplineSet
EndChar

StartChar: Z.solo
Encoding: 110 -1 110
Width: 1000
Flags: HW
LayerCount: 2
Fore
SplineSet
683.299804688 400 m 25
 841.599609375 400 l 25
 841.599609375 200 l 25
 683.299804688 200 l 29
 683.299804688 400 l 25
158.299804688 400 m 25
 316.599609375 400 l 25
 316.599609375 200 l 25
 158.299804688 200 l 25
 158.299804688 400 l 25
475 600 m 25
 525 600 l 25
 525 0 l 25
 475 0 l 29
 475 600 l 25
EndSplineSet
EndChar

StartChar: Zhed.solo
Encoding: 111 -1 111
Width: 1000
Flags: HW
LayerCount: 2
Fore
SplineSet
683.299804688 400 m 25
 841.599609375 400 l 25
 841.599609375 200 l 25
 683.299804688 200 l 29
 683.299804688 400 l 25
158.299804688 400 m 25
 316.599609375 400 l 25
 316.599609375 200 l 25
 158.299804688 200 l 25
 158.299804688 400 l 25
475 600 m 25
 525 600 l 25
 525 0 l 25
 475 0 l 29
 475 600 l 25
EndSplineSet
EndChar

StartChar: _.solo
Encoding: 112 -1 112
Width: 1000
Flags: HW
LayerCount: 2
Fore
SplineSet
475 600 m 25
 525 600 l 25
 525 0 l 25
 475 0 l 29
 475 600 l 25
683.3 400 m 25
 841.6 400 l 25
 841.6 200 l 25
 683.3 200 l 29
 683.3 400 l 25
158.3 400 m 25
 316.6 400 l 25
 316.6 200 l 25
 158.3 200 l 25
 158.3 400 l 25
EndSplineSet
EndChar

StartChar: _.init
Encoding: 113 -1 113
Width: 1000
Flags: HW
LayerCount: 2
Fore
SplineSet
475 600 m 25
 525 600 l 25
 525 0 l 25
 475 0 l 29
 475 600 l 25
525 400 m 25
 841.6 400 l 25
 841.6 200 l 25
 525 200 l 25
 525 400 l 25
EndSplineSet
EndChar

StartChar: _.medi
Encoding: 114 -1 114
Width: 1000
Flags: HW
LayerCount: 2
Fore
SplineSet
475 600 m 25
 525 600 l 25
 525 0 l 25
 475 0 l 29
 475 600 l 25
525 400 m 29
 841.6 400 l 25
 841.6 200 l 25
 525 200 l 25
 525 400 l 29
158.3 400 m 25
 475 400 l 25
 475 200 l 25
 158.3 200 l 25
 158.3 400 l 25
EndSplineSet
EndChar

StartChar: _.fina
Encoding: 115 -1 115
Width: 1000
Flags: HW
LayerCount: 2
Fore
SplineSet
475 600 m 25
 525 600 l 25
 525 0 l 25
 475 0 l 29
 475 600 l 25
158.3 400 m 25
 475 400 l 25
 475 200 l 25
 158.3 200 l 25
 158.3 400 l 25
EndSplineSet
EndChar

StartChar: A_Emphasis
Encoding: 216 -1 116
Width: 1000
VWidth: 0
Flags: HW
LayerCount: 2
Fore
SplineSet
475 600 m 25
 525 600 l 25
 525 0 l 25
 475 0 l 29
 475 600 l 25
475 600 m 25
 525 600 l 25
 525 0 l 25
 475 0 l 29
 475 600 l 25
EndSplineSet
EndChar

StartChar: B_Emphasis
Encoding: 217 -1 117
Width: 1000
VWidth: 0
Flags: HW
LayerCount: 2
Fore
SplineSet
475 600 m 25
 525 600 l 25
 525 0 l 25
 475 0 l 29
 475 600 l 25
475 600 m 25
 525 600 l 25
 525 0 l 25
 475 0 l 29
 475 600 l 25
EndSplineSet
EndChar

StartChar: C_Emphasis
Encoding: 218 -1 118
Width: 1000
VWidth: 0
Flags: HW
LayerCount: 2
Fore
SplineSet
475 600 m 25
 525 600 l 25
 525 0 l 25
 475 0 l 29
 475 600 l 25
475 600 m 25
 525 600 l 25
 525 0 l 25
 475 0 l 29
 475 600 l 25
EndSplineSet
EndChar

StartChar: D_Emphasis
Encoding: 219 -1 119
Width: 1000
VWidth: 0
Flags: HW
LayerCount: 2
Fore
SplineSet
475 600 m 25
 525 600 l 25
 525 0 l 25
 475 0 l 29
 475 600 l 25
475 600 m 25
 525 600 l 25
 525 0 l 25
 475 0 l 29
 475 600 l 25
EndSplineSet
EndChar

StartChar: E_Emphasis
Encoding: 220 -1 120
Width: 1000
VWidth: 0
Flags: HW
LayerCount: 2
Fore
SplineSet
475 600 m 25
 525 600 l 25
 525 0 l 25
 475 0 l 29
 475 600 l 25
475 600 m 25
 525 600 l 25
 525 0 l 25
 475 0 l 29
 475 600 l 25
EndSplineSet
EndChar

StartChar: Eacute_Emphasis
Encoding: 221 -1 121
Width: 1000
VWidth: 0
Flags: HW
LayerCount: 2
Fore
SplineSet
475 600 m 25
 525 600 l 25
 525 0 l 25
 475 0 l 29
 475 600 l 25
475 600 m 25
 525 600 l 25
 525 0 l 25
 475 0 l 29
 475 600 l 25
EndSplineSet
EndChar

StartChar: Edh_Emphasis
Encoding: 222 -1 122
Width: 1000
VWidth: 0
Flags: HW
LayerCount: 2
Fore
SplineSet
475 600 m 25
 525 600 l 25
 525 0 l 25
 475 0 l 29
 475 600 l 25
475 600 m 25
 525 600 l 25
 525 0 l 25
 475 0 l 29
 475 600 l 25
EndSplineSet
EndChar

StartChar: Eng_Emphasis
Encoding: 223 -1 123
Width: 1000
VWidth: 0
Flags: HW
LayerCount: 2
Fore
SplineSet
475 600 m 25
 525 600 l 25
 525 0 l 25
 475 0 l 29
 475 600 l 25
475 600 m 25
 525 600 l 25
 525 0 l 25
 475 0 l 29
 475 600 l 25
EndSplineSet
EndChar

StartChar: Esh_Emphasis
Encoding: 224 -1 124
Width: 1000
VWidth: 0
Flags: HW
LayerCount: 2
Fore
SplineSet
475 600 m 25
 525 600 l 25
 525 0 l 25
 475 0 l 29
 475 600 l 25
475 600 m 25
 525 600 l 25
 525 0 l 25
 475 0 l 29
 475 600 l 25
EndSplineSet
EndChar

StartChar: F_Emphasis
Encoding: 225 -1 125
Width: 1000
VWidth: 0
Flags: HW
LayerCount: 2
Fore
SplineSet
475 600 m 25
 525 600 l 25
 525 0 l 25
 475 0 l 29
 475 600 l 25
475 600 m 25
 525 600 l 25
 525 0 l 25
 475 0 l 29
 475 600 l 25
EndSplineSet
EndChar

StartChar: G_Emphasis
Encoding: 226 -1 126
Width: 1000
VWidth: 0
Flags: HW
LayerCount: 2
Fore
SplineSet
475 600 m 25
 525 600 l 25
 525 0 l 25
 475 0 l 29
 475 600 l 25
475 600 m 25
 525 600 l 25
 525 0 l 25
 475 0 l 29
 475 600 l 25
EndSplineSet
EndChar

StartChar: H_Emphasis
Encoding: 227 -1 127
Width: 1000
VWidth: 0
Flags: HW
LayerCount: 2
Fore
SplineSet
475 600 m 25
 525 600 l 25
 525 0 l 25
 475 0 l 29
 475 600 l 25
475 600 m 25
 525 600 l 25
 525 0 l 25
 475 0 l 29
 475 600 l 25
EndSplineSet
EndChar

StartChar: I_Emphasis
Encoding: 228 -1 128
Width: 1000
VWidth: 0
Flags: HW
LayerCount: 2
Fore
SplineSet
475 600 m 25
 525 600 l 25
 525 0 l 25
 475 0 l 29
 475 600 l 25
475 600 m 25
 525 600 l 25
 525 0 l 25
 475 0 l 29
 475 600 l 25
EndSplineSet
EndChar

StartChar: Iacute_Emphasis
Encoding: 229 -1 129
Width: 1000
VWidth: 0
Flags: HW
LayerCount: 2
Fore
SplineSet
475 600 m 25
 525 600 l 25
 525 0 l 25
 475 0 l 29
 475 600 l 25
475 600 m 25
 525 600 l 25
 525 0 l 25
 475 0 l 29
 475 600 l 25
EndSplineSet
EndChar

StartChar: J_Emphasis
Encoding: 230 -1 130
Width: 1000
VWidth: 0
Flags: HW
LayerCount: 2
Fore
SplineSet
475 600 m 25
 525 600 l 25
 525 0 l 25
 475 0 l 29
 475 600 l 25
475 600 m 25
 525 600 l 25
 525 0 l 25
 475 0 l 29
 475 600 l 25
EndSplineSet
EndChar

StartChar: K_Emphasis
Encoding: 231 -1 131
Width: 1000
VWidth: 0
Flags: HW
LayerCount: 2
Fore
SplineSet
475 600 m 25
 525 600 l 25
 525 0 l 25
 475 0 l 29
 475 600 l 25
475 600 m 25
 525 600 l 25
 525 0 l 25
 475 0 l 29
 475 600 l 25
EndSplineSet
EndChar

StartChar: L_Emphasis
Encoding: 232 -1 132
Width: 1000
VWidth: 0
Flags: HW
LayerCount: 2
Fore
SplineSet
475 600 m 25
 525 600 l 25
 525 0 l 25
 475 0 l 29
 475 600 l 25
475 600 m 25
 525 600 l 25
 525 0 l 25
 475 0 l 29
 475 600 l 25
EndSplineSet
EndChar

StartChar: M_Emphasis
Encoding: 233 -1 133
Width: 1000
VWidth: 0
Flags: HW
LayerCount: 2
Fore
SplineSet
475 600 m 25
 525 600 l 25
 525 0 l 25
 475 0 l 29
 475 600 l 25
475 600 m 25
 525 600 l 25
 525 0 l 25
 475 0 l 29
 475 600 l 25
EndSplineSet
EndChar

StartChar: N_Emphasis
Encoding: 234 -1 134
Width: 1000
VWidth: 0
Flags: HW
LayerCount: 2
Fore
SplineSet
475 600 m 25
 525 600 l 25
 525 0 l 25
 475 0 l 29
 475 600 l 25
475 600 m 25
 525 600 l 25
 525 0 l 25
 475 0 l 29
 475 600 l 25
EndSplineSet
EndChar

StartChar: O_Emphasis
Encoding: 235 -1 135
Width: 1000
VWidth: 0
Flags: HW
LayerCount: 2
Fore
SplineSet
475 600 m 25
 525 600 l 25
 525 0 l 25
 475 0 l 29
 475 600 l 25
475 600 m 25
 525 600 l 25
 525 0 l 25
 475 0 l 29
 475 600 l 25
EndSplineSet
EndChar

StartChar: Oacute_Emphasis
Encoding: 236 -1 136
Width: 1000
VWidth: 0
Flags: HW
LayerCount: 2
Fore
SplineSet
475 600 m 25
 525 600 l 25
 525 0 l 25
 475 0 l 29
 475 600 l 25
475 600 m 25
 525 600 l 25
 525 0 l 25
 475 0 l 29
 475 600 l 25
EndSplineSet
EndChar

StartChar: P_Emphasis
Encoding: 237 -1 137
Width: 1000
VWidth: 0
Flags: HW
LayerCount: 2
Fore
SplineSet
475 600 m 25
 525 600 l 25
 525 0 l 25
 475 0 l 29
 475 600 l 25
475 600 m 25
 525 600 l 25
 525 0 l 25
 475 0 l 29
 475 600 l 25
EndSplineSet
EndChar

StartChar: R_Emphasis
Encoding: 238 -1 138
Width: 1000
VWidth: 0
Flags: HW
LayerCount: 2
Fore
SplineSet
475 600 m 25
 525 600 l 25
 525 0 l 25
 475 0 l 29
 475 600 l 25
475 600 m 25
 525 600 l 25
 525 0 l 25
 475 0 l 29
 475 600 l 25
EndSplineSet
EndChar

StartChar: S_Emphasis
Encoding: 239 -1 139
Width: 1000
VWidth: 0
Flags: HW
LayerCount: 2
Fore
SplineSet
475 600 m 25
 525 600 l 25
 525 0 l 25
 475 0 l 29
 475 600 l 25
475 600 m 25
 525 600 l 25
 525 0 l 25
 475 0 l 29
 475 600 l 25
EndSplineSet
EndChar

StartChar: T_Emphasis
Encoding: 240 -1 140
Width: 1000
VWidth: 0
Flags: HW
LayerCount: 2
Fore
SplineSet
475 600 m 25
 525 600 l 25
 525 0 l 25
 475 0 l 29
 475 600 l 25
475 600 m 25
 525 600 l 25
 525 0 l 25
 475 0 l 29
 475 600 l 25
EndSplineSet
EndChar

StartChar: Thorn_Emphasis
Encoding: 241 -1 141
Width: 1000
VWidth: 0
Flags: HW
LayerCount: 2
Fore
SplineSet
475 600 m 25
 525 600 l 25
 525 0 l 25
 475 0 l 29
 475 600 l 25
475 600 m 25
 525 600 l 25
 525 0 l 25
 475 0 l 29
 475 600 l 25
EndSplineSet
EndChar

StartChar: U_Emphasis
Encoding: 242 -1 142
Width: 1000
VWidth: 0
Flags: HW
LayerCount: 2
Fore
SplineSet
475 600 m 25
 525 600 l 25
 525 0 l 25
 475 0 l 29
 475 600 l 25
475 600 m 25
 525 600 l 25
 525 0 l 25
 475 0 l 29
 475 600 l 25
EndSplineSet
EndChar

StartChar: Uacute_Emphasis
Encoding: 243 -1 143
Width: 1000
VWidth: 0
Flags: HW
LayerCount: 2
Fore
SplineSet
475 600 m 25
 525 600 l 25
 525 0 l 25
 475 0 l 29
 475 600 l 25
475 600 m 25
 525 600 l 25
 525 0 l 25
 475 0 l 29
 475 600 l 25
EndSplineSet
EndChar

StartChar: Udoubleacute_Emphasis
Encoding: 244 -1 144
Width: 1000
VWidth: 0
Flags: HW
LayerCount: 2
Fore
SplineSet
475 600 m 25
 525 600 l 25
 525 0 l 25
 475 0 l 29
 475 600 l 25
475 600 m 25
 525 600 l 25
 525 0 l 25
 475 0 l 29
 475 600 l 25
EndSplineSet
EndChar

StartChar: V_Emphasis
Encoding: 245 -1 145
Width: 1000
VWidth: 0
Flags: HW
LayerCount: 2
Fore
SplineSet
475 600 m 25
 525 600 l 25
 525 0 l 25
 475 0 l 29
 475 600 l 25
475 600 m 25
 525 600 l 25
 525 0 l 25
 475 0 l 29
 475 600 l 25
EndSplineSet
EndChar

StartChar: W_Emphasis
Encoding: 246 -1 146
Width: 1000
VWidth: 0
Flags: HW
LayerCount: 2
Fore
SplineSet
475 600 m 25
 525 600 l 25
 525 0 l 25
 475 0 l 29
 475 600 l 25
475 600 m 25
 525 600 l 25
 525 0 l 25
 475 0 l 29
 475 600 l 25
EndSplineSet
EndChar

StartChar: Y_Emphasis
Encoding: 247 -1 147
Width: 1000
VWidth: 0
Flags: HW
LayerCount: 2
Fore
SplineSet
475 600 m 25
 525 600 l 25
 525 0 l 25
 475 0 l 29
 475 600 l 25
475 600 m 25
 525 600 l 25
 525 0 l 25
 475 0 l 29
 475 600 l 25
EndSplineSet
EndChar

StartChar: Z_Emphasis
Encoding: 248 -1 148
Width: 1000
VWidth: 0
Flags: HW
LayerCount: 2
Fore
SplineSet
475 600 m 25
 525 600 l 25
 525 0 l 25
 475 0 l 29
 475 600 l 25
475 600 m 25
 525 600 l 25
 525 0 l 25
 475 0 l 29
 475 600 l 25
EndSplineSet
EndChar

StartChar: Zhed_Emphasis
Encoding: 249 -1 149
Width: 1000
VWidth: 0
Flags: HW
LayerCount: 2
Fore
SplineSet
475 600 m 25
 525 600 l 25
 525 0 l 25
 475 0 l 29
 475 600 l 25
475 600 m 25
 525 600 l 25
 525 0 l 25
 475 0 l 29
 475 600 l 25
EndSplineSet
EndChar
